<?xml version="1.0" standalone="no"?>
<!DOCTYPE svg PUBLIC "-//W3C//DTD SVG 20010904//EN"
 "http://www.w3.org/TR/2001/REC-SVG-20010904/DTD/svg10.dtd">
<svg version="1.0" xmlns="http://www.w3.org/2000/svg"
 width="200.000000pt" height="200.000000pt" viewBox="0 0 200.000000 200.000000"
 preserveAspectRatio="xMidYMid meet">

<g transform="translate(0.000000,200.000000) scale(0.100000,-0.100000)"
fill="#000000" stroke="none">
<path d="M775 1280 c-27 -16 -44 -30 -36 -30 8 0 24 8 35 18 11 9 4 -3 -17
-27 -37 -44 -50 -74 -23 -52 12 10 13 5 9 -30 -5 -33 -3 -40 7 -34 10 6 12 0
7 -28 -3 -20 -1 -37 4 -39 10 -3 -17 -93 -45 -147 l-17 -32 51 37 c27 20 50
40 50 46 0 5 20 29 45 53 35 34 46 53 51 87 3 24 16 58 28 75 19 30 25 33 76
33 51 0 57 -3 76 -33 12 -17 25 -51 28 -75 5 -34 16 -53 51 -87 25 -24 45 -48
45 -53 0 -6 23 -26 50 -46 l51 -37 -17 32 c-28 54 -55 144 -45 147 5 2 7 19 4
39 -5 28 -3 34 7 28 9 -6 11 1 8 29 -3 27 -1 35 9 32 22 -9 15 9 -24 55 -21
24 -28 36 -17 27 11 -10 27 -18 35 -18 8 0 -8 14 -36 30 -27 16 -57 29 -65 29
-10 0 -8 -3 5 -9 16 -7 17 -9 3 -9 -10 -1 -16 -9 -15 -21 2 -23 2 -23 30 -9
12 7 19 8 14 4 -10 -11 23 -46 36 -38 5 3 7 1 4 -5 -7 -11 -32 -11 -43 1 -16
15 -26 6 -12 -10 11 -14 13 -31 7 -78 l-7 -60 2 61 c2 52 0 60 -16 61 -11 1
-16 -3 -12 -9 4 -6 3 -8 -4 -4 -5 3 -12 1 -14 -5 -2 -6 -2 20 0 58 4 67 3 70
-18 68 -29 -2 -48 -29 -43 -58 4 -21 2 -22 -77 -24 -82 -1 -82 -1 -77 23 5 30
-14 57 -43 59 -21 2 -22 -1 -18 -68 2 -38 2 -64 0 -58 -2 6 -7 9 -12 6 -5 -3
-6 8 -4 25 3 18 1 30 -6 30 -6 0 -9 -4 -5 -9 3 -5 1 -12 -5 -16 -6 -4 -7 -11
-4 -17 4 -6 3 -8 -3 -5 -5 4 -8 -18 -7 -56 l2 -62 -7 60 c-6 47 -4 64 7 78 9
10 11 17 4 17 -6 0 -13 -4 -16 -9 -7 -11 -32 -9 -43 4 -4 4 -3 5 3 2 14 -8 47
26 37 38 -5 4 2 3 14 -4 28 -14 28 -14 30 9 1 12 -5 20 -15 21 -14 0 -13 2 3
9 13 6 15 9 5 9 -8 0 -37 -13 -65 -29z m133 -16 c-3 -14 -5 -12 -10 9 -3 19
-2 25 4 19 6 -6 8 -18 6 -28z m194 9 c-3 -16 -7 -22 -10 -15 -4 13 4 42 11 42
2 0 2 -12 -1 -27z m-335 -95 c-3 -8 -6 -5 -6 6 -1 11 2 17 5 13 3 -3 4 -12 1
-19z m470 0 c-3 -8 -6 -5 -6 6 -1 11 2 17 5 13 3 -3 4 -12 1 -19z m-440 -60
c-2 -13 -4 -5 -4 17 -1 22 1 32 4 23 2 -10 2 -28 0 -40z m40 -15 c-2 -16 -4
-5 -4 22 0 28 2 40 4 28 2 -13 2 -35 0 -50z m330 5 c-2 -13 -4 -3 -4 22 0 25
2 35 4 23 2 -13 2 -33 0 -45z m40 10 c-2 -13 -4 -5 -4 17 -1 22 1 32 4 23 2
-10 2 -28 0 -40z m-350 -10 c-2 -13 -4 -5 -4 17 -1 22 1 32 4 23 2 -10 2 -28
0 -40z m30 30 c-3 -8 -6 -5 -6 6 -1 11 2 17 5 13 3 -3 4 -12 1 -19z m230 0
c-3 -8 -6 -5 -6 6 -1 11 2 17 5 13 3 -3 4 -12 1 -19z m30 -30 c-2 -13 -4 -5
-4 17 -1 22 1 32 4 23 2 -10 2 -28 0 -40z"/>
<path d="M799 1233 c-13 -17 -13 -17 6 -3 11 8 22 16 24 17 2 2 0 3 -6 3 -6 0
-17 -8 -24 -17z"/>
<path d="M1163 1243 c-18 -7 -16 -30 3 -37 14 -5 15 -4 5 8 -17 20 5 32 27 14
15 -12 16 -11 3 5 -14 18 -18 19 -38 10z"/>
<path d="M938 1165 c-23 -31 -22 -81 2 -125 l19 -35 1 93 c0 50 -1 92 -2 92
-2 0 -11 -11 -20 -25z"/>
<path d="M1040 1099 l1 -94 19 35 c25 46 25 95 0 127 l-20 26 0 -94z"/>
<path d="M957 969 c12 -12 24 -21 27 -18 2 2 -8 13 -22 23 l-27 19 22 -24z"/>
<path d="M1031 970 c-13 -11 -19 -20 -14 -20 6 0 18 9 28 20 23 25 17 25 -14
0z"/>
<path d="M867 952 c-25 -27 -21 -36 5 -12 12 11 19 22 16 25 -2 3 -12 -3 -21
-13z"/>
<path d="M1110 963 c0 -7 8 -16 17 -22 16 -8 15 -11 -7 -31 -23 -19 -23 -20
-3 -11 34 17 37 31 14 54 -11 12 -21 16 -21 10z"/>
<path d="M870 916 c0 -2 8 -10 18 -17 15 -13 16 -12 3 4 -13 16 -21 21 -21 13z"/>
<path d="M910 886 c0 -2 7 -7 16 -10 8 -3 12 -2 9 4 -6 10 -25 14 -25 6z"/>
<path d="M1065 880 c-3 -6 1 -7 9 -4 18 7 21 14 7 14 -6 0 -13 -4 -16 -10z"/>
<path d="M957 868 c2 -5 22 -8 43 -8 21 0 41 3 43 8 3 4 -17 7 -43 7 -26 0
-46 -3 -43 -7z"/>
<path d="M193 710 c0 -41 2 -58 4 -37 2 20 2 54 0 75 -2 20 -4 3 -4 -38z"/>
<path d="M1010 710 c0 -38 4 -70 8 -70 4 0 7 31 7 70 0 38 -3 70 -7 70 -5 0
-8 -31 -8 -70z"/>
<path d="M1066 753 c3 -12 1 -24 -6 -28 -8 -5 -6 -13 6 -27 15 -16 16 -22 5
-40 -10 -17 -10 -19 1 -16 19 7 23 57 4 64 -12 5 -13 9 -3 25 9 14 9 21 0 30
-9 9 -11 7 -7 -8z"/>
<path d="M502 700 c-2 -37 1 -60 8 -60 6 0 10 25 10 60 0 78 -14 78 -18 0z"/>
<path d="M610 700 c0 -33 3 -60 8 -60 4 0 7 27 7 60 0 33 -3 60 -7 60 -5 0 -8
-27 -8 -60z"/>
<path d="M763 700 c0 -36 2 -50 4 -32 2 17 2 47 0 65 -2 17 -4 3 -4 -33z"/>
<path d="M850 700 c0 -35 3 -61 6 -57 7 7 7 107 0 115 -3 3 -6 -23 -6 -58z"/>
<path d="M1263 700 c0 -36 2 -50 4 -32 2 17 2 47 0 65 -2 17 -4 3 -4 -33z"/>
<path d="M1388 700 c-1 -33 0 -60 5 -60 4 0 7 27 7 60 0 77 -7 77 -12 0z"/>
<path d="M1510 700 c0 -33 3 -60 8 -60 4 0 7 27 7 60 0 33 -3 60 -7 60 -5 0
-8 -27 -8 -60z"/>
<path d="M1640 700 c0 -33 3 -60 8 -60 4 0 7 27 7 60 0 33 -3 60 -7 60 -5 0
-8 -27 -8 -60z"/>
<path d="M252 693 l2 -58 3 49 4 49 50 -49 c27 -26 49 -43 49 -36 0 7 -19 29
-41 50 -68 61 -69 61 -67 -5z"/>
<path d="M401 739 c-1 -8 15 -30 34 -49 19 -19 35 -29 35 -22 0 6 -12 19 -26
29 -14 9 -30 26 -34 37 -6 14 -9 16 -9 5z"/>
<path d="M671 739 c3 -28 -1 -39 -16 -39 -13 0 -11 -6 7 -30 12 -16 26 -30 32
-30 5 0 0 11 -13 23 -19 21 -20 25 -6 37 17 14 20 36 4 45 -6 4 -10 1 -8 -6z"/>
<path d="M1156 735 c-3 -8 0 -14 6 -12 7 1 19 -17 27 -40 9 -24 19 -43 23 -43
8 0 -3 34 -27 80 -18 34 -21 36 -29 15z"/>
<path d="M1320 723 c0 -21 3 -24 9 -14 5 8 7 20 4 28 -8 21 -13 15 -13 -14z"/>
<path d="M1446 736 c5 -13 1 -23 -11 -33 -18 -13 -18 -14 10 -41 l28 -27 -16
27 c-14 23 -15 31 -5 48 10 16 10 22 0 32 -11 11 -12 9 -6 -6z"/>
<path d="M1570 740 c4 -29 0 -40 -15 -40 -13 0 -11 -6 7 -30 12 -16 26 -30 31
-30 6 0 2 9 -8 20 -16 18 -17 23 -5 45 11 21 11 28 1 38 -10 9 -12 9 -11 -3z"/>
<path d="M1700 731 c-16 -30 -12 -56 12 -77 l21 -19 -18 29 c-15 23 -17 33 -8
57 13 33 9 39 -7 10z"/>
<path d="M1798 733 c16 -30 15 -53 -5 -75 -20 -22 -11 -24 11 -2 21 20 20 68
-1 85 -15 13 -15 12 -5 -8z"/>
<path d="M1127 675 c-9 -19 -13 -35 -9 -35 9 0 36 59 30 65 -2 3 -12 -11 -21
-30z"/>
<path d="M1310 670 c12 -16 26 -30 31 -30 12 0 -32 59 -44 59 -5 1 1 -12 13
-29z"/>
</g>
</svg>
